<svg
              version="1.1"
              xmlns="http://www.w3.org/2000/svg"
              viewBox="0 0 19 18"
              fill="#FFFFFF"
            >
              <path
                d="M16.5,9c-0.3,0-0.7,0-1-0.1C12.8,8.8,10,8.6,7.3,8.5C6,8.4,4.7,8.3,3.4,8.2 C3.3,8.2,3.2,8.2,3.1,8c-0.8-2.3-1.7-4.7-2.5-7c-0.1-0.2,0-0.2,0.1-0.3C1.1,0.5,1.5,0.5,2,0.7c1.6,0.7,3.3,1.4,4.9,2.1 c2.9,1.3,5.8,2.6,8.6,4.1c0.8,0.4,1.6,1,2.4,1.5c0.2,0.1,0.3,0.3,0.4,0.4c0.2,0.2,0.2,0.3,0,0.5c-0.2,0.2-0.5,0.5-0.8,0.6 c-1.1,0.7-2.3,1.4-3.5,2c-3.9,2-8,3.8-12.1,5.5c-0.4,0.2-0.9,0.2-1.3-0.1c-0.1-0.1-0.2-0.2-0.1-0.3c0.9-2.3,1.7-4.7,2.6-7 c0-0.1,0.1-0.2,0.3-0.2c2.7-0.1,5.4-0.3,8.2-0.5c1.6-0.1,3.1-0.2,4.7-0.3C16.4,9,16.4,9,16.5,9C16.5,9,16.5,9,16.5,9"
              />
</svg>